# xmcd CD database file
#
# Track frame offsets:
#	150
#	13017
#	24699
#	35853
#	47633
#	58502
#	70277
#	80261
#	90683
#	101368
#	112480
#	123577
#	135246
#	146761
#	157095
#	167845
#	180334
#	190691
#	201628
#	211960
#	233690
#
# Disc length: 3255 seconds
#
# Revision: 0
# Processed by: cddbd v1.5.2PL0 Copyright (c) Steve Scherf et al.
# Submitted via: CDex 1.40Release
#
DISCID=2f0cb515
DTITLE=Robert Johnson - The Complete Recordings [CD2]
DYEAR=1937
DGENRE=Blues
TTITLE0=Preachin' Blues (Up Jumped the Devil) 
TTITLE1=If I Had Possession Over Judgment Day
TTITLE2=Stones In My Passway
TTITLE3=I'm a Steady Rollin' Man
TTITLE4=From Four Until Late 
TTITLE5=Hell Hound on My Trail
TTITLE6=Little Queen of Spades 
TTITLE7=Little Queen of Spades2
TTITLE8=Malted Milk 
TTITLE9=Drunken Hearted Man 
TTITLE10=Drunken Hearted Man2
TTITLE11=Me and the Devil Blues
TTITLE12=Me and the Devil Blues2
TTITLE13=Stop Breakin' Down Blues
TTITLE14=Stop Breakin' Down Blues2
TTITLE15=Traveling Riverside Blues
TTITLE16=Honeymoon Blues
TTITLE17=Love in Vain Blues
TTITLE18=Love in Vain Blues2
TTITLE19=Milkcow's Calf Blues 
TTITLE20=Milkcow's Calf Blues2
EXTD=YEAR: 1937 ID3G: 0
EXTT0=
EXTT1=
EXTT2=
EXTT3=
EXTT4=
EXTT5=
EXTT6=
EXTT7=
EXTT8=
EXTT9=
EXTT10=
EXTT11=
EXTT12=
EXTT13=
EXTT14=
EXTT15=
EXTT16=
EXTT17=
EXTT18=
EXTT19=
EXTT20=
PLAYORDER=
